<?xml version="1.0" standalone="no"?>
<!DOCTYPE svg PUBLIC "-//W3C//DTD SVG 20010904//EN"
 "http://www.w3.org/TR/2001/REC-SVG-20010904/DTD/svg10.dtd">
<svg version="1.0" xmlns="http://www.w3.org/2000/svg"
 width="700.000000pt" height="700.000000pt" viewBox="0 0 700.000000 700.000000"
 preserveAspectRatio="xMidYMid meet">
<metadata>
Created by potrace 1.14, written by Peter Selinger 2001-2017
</metadata>
<g transform="translate(0.000000,700.000000) scale(0.100000,-0.100000)"
fill="#000000" stroke="none">
<path d="M3280 6994 c-19 -2 -84 -9 -145 -14 -639 -62 -1264 -315 -1795 -726
-149 -115 -481 -446 -595 -594 -410 -532 -653 -1132 -727 -1795 -17 -155 -17
-575 0 -730 75 -673 332 -1300 748 -1820 114 -143 339 -372 484 -494 537 -451
1163 -717 1885 -803 142 -17 586 -17 730 0 682 79 1268 318 1802 734 138 107
389 351 512 498 451 538 717 1162 803 1885 16 139 16 595 0 730 -77 629 -275
1158 -620 1649 -234 333 -577 668 -917 896 -460 308 -968 495 -1535 566 -117
15 -552 27 -630 18z m1712 -1524 c278 -23 426 -80 488 -190 22 -40 25 -56 24
-145 -1 -86 -5 -111 -32 -183 -59 -157 -153 -287 -383 -531 -156 -166 -461
-456 -674 -642 -328 -285 -642 -537 -1285 -1029 -873 -668 -1124 -870 -1270
-1021 -121 -126 -138 -135 -181 -101 -37 31 -30 75 19 125 28 29 42 52 42 69
0 45 164 198 213 198 10 0 125 85 256 188 130 104 394 309 586 457 989 759
1236 956 1630 1305 216 191 698 678 778 785 117 156 167 274 167 390 0 70 -14
91 -82 126 -112 57 -471 86 -953 76 -530 -11 -938 -82 -1440 -251 -687 -232
-1262 -554 -1714 -960 -80 -72 -114 -83 -151 -46 -34 34 -26 68 28 118 417
390 986 725 1650 968 515 189 931 273 1517 308 99 6 641 -4 767 -14z m942
-1406 c28 -27 18 -76 -67 -320 -114 -326 -150 -408 -385 -874 -277 -551 -388
-793 -442 -965 -16 -51 -47 -85 -77 -85 -24 0 -73 40 -73 60 0 22 92 263 154
403 36 81 164 344 285 584 193 384 331 678 331 705 0 4 -43 -30 -96 -76 -53
-47 -146 -120 -208 -164 -148 -105 -606 -404 -729 -477 -138 -80 -326 -168
-430 -200 -74 -23 -95 -26 -135 -18 -36 7 -56 6 -82 -5 -24 -10 -68 -13 -157
-10 -110 3 -125 5 -144 25 l-22 22 -88 -45 c-95 -47 -132 -54 -161 -27 -23 21
-24 75 0 95 9 9 61 41 115 72 89 51 104 56 158 56 58 0 89 -15 100 -49 7 -21
103 -25 163 -6 41 13 71 16 114 11 49 -6 71 -2 133 20 116 42 243 104 389 191
184 110 683 443 800 533 186 144 352 331 420 473 15 31 33 64 40 72 16 20 74
19 94 -1z m-3974 -44 c24 -24 24 -17 3 -210 -13 -126 -17 -266 -17 -746 -1
-567 -2 -593 -20 -613 -26 -28 -61 -26 -92 4 l-26 26 5 642 c7 835 16 917 99
917 15 0 37 -9 48 -20z"/>
</g>
</svg>
