<svg width="84" height="36" viewBox="0 0 84 36" fill="none" xmlns="http://www.w3.org/2000/svg">
<g clip-path="url(#clip0_dav-sig)">
<path class="david_sig" d="M11.5306 14.1851C11.6064 16.6406 11.6821 19.0962 11.7578 21.5518" stroke="#3D8FB1" stroke-linecap="round" stroke-linejoin="round"/>
<path class="david_sig"  d="M1.87082 17.8456C5.1022 15.0007 8.55184 11.9308 12.6672 10.4797C14.9309 9.68142 17.117 9.49357 19.4895 9.84978C19.9933 9.92541 23.2664 10.2573 23.2566 11.0696C23.2353 12.8502 21.3248 15.1298 20.306 16.4162C17.0916 20.4748 12.8515 23.557 9.20733 27.1932C8.69532 27.7041 5.91115 30.3741 7.44779 31.3484C7.99589 31.6959 8.33937 31.2701 8.5839 30.8523" stroke="#3D8FB1" stroke-linecap="round" stroke-linejoin="round"/>
<path class="david_sig"  d="M19.8202 19.6516C19.7755 19.7233 18.5043 21.91 18.7479 21.8607C19.303 21.7483 19.8552 20.7995 20.1087 20.3615C20.2942 20.041 20.5484 19.0373 20.9341 18.8929C21.1931 18.796 21.2722 20.7515 21.3062 20.9363C21.4509 21.7223 21.7975 21.4837 22.0728 20.9279C22.4953 20.0754 22.4149 20.2353 22.7139 21.0982C23.1387 22.3245 23.5846 21.3913 24.0514 22.3854C24.3856 23.0973 24.5565 22.4859 24.9074 21.946C25.8683 20.4675 26.659 18.9613 27.142 17.2573C28.0063 14.2085 27.8972 10.7207 26.2155 7.9709C25.6726 7.08312 25.5477 7.93681 25.3733 8.64685C24.6313 11.6677 24.767 14.8706 25.7741 17.8173C26.7724 20.7382 28.2535 23.8206 30.1874 26.2446C30.1946 26.2536 31.3182 27.74 31.1736 26.9112" stroke="#3D8FB1" stroke-linecap="round" stroke-linejoin="round"/>
<path class="david_sig"  d="M30.3819 15.9044C32.2094 12.8623 33.4351 9.49313 35.1217 6.37002C35.2955 6.04817 35.7886 5.17721 35.8389 5.53951C36.0874 7.32997 35.309 9.73444 34.9991 11.4623C34.5411 14.0148 33.9447 16.5284 33.3773 19.0576C32.8812 21.269 32.2022 23.6916 32.4232 25.9877C32.4891 26.6719 32.7053 26.7979 33.2272 26.5528" stroke="#3D8FB1" stroke-linecap="round" stroke-linejoin="round"/>
<path class="david_sig"  d="M38.163 5.51807C37.3759 11.6919 37.7307 17.7208 38.9199 23.8276C39.0432 24.4605 39.2347 25.0196 39.1382 25.6626" stroke="#3D8FB1" stroke-linecap="round" stroke-linejoin="round"/>
<path class="david_sig"  d="M32.5113 18.0016C35.5416 18.0058 38.5919 18.1287 41.6165 18.0354" stroke="#3D8FB1" stroke-linecap="round" stroke-linejoin="round"/>
<path class="david_sig"  d="M46.9623 17.9492C47.3483 15.533 47.0517 13.2158 46.7284 10.7912C46.3342 7.83548 46.0392 4.55911 44.2492 2.06177C43.2395 0.653028 42.4501 -0.832978 41.5722 1.22779C37.4743 10.8478 42.1083 19.8876 47.4825 27.8041" stroke="#3D8FB1" stroke-linecap="round" stroke-linejoin="round"/>
<path class="david_sig"  d="M49.1895 19.3946C48.9913 20.524 48.4184 23.6329 49.241 22.8341C49.6738 22.4139 50.005 21.7663 50.2022 21.2008C50.659 19.8908 50.1957 21.4892 50.254 22.1715C50.288 22.5704 50.6965 25.3435 51.4139 24.1479C52.0465 23.0936 52.5969 19.412 52.5576 20.641C52.5358 21.3258 52.9203 23.7114 53.4291 21.9075C53.5311 21.5458 53.5141 20.4806 53.6924 20.8113C53.7226 20.8673 53.8374 21.5547 53.9725 21.2484C54.4167 20.2408 54.3299 18.1272 54.1488 20.7317C53.8781 24.6233 55.2053 28.5377 56.3252 32.218C56.5263 32.879 56.7979 34.7136 57.1507 34.1195C57.5604 33.4296 57.3293 31.8411 57.2791 31.1267C57.0079 27.2691 55.89 23.4778 55.0158 19.7262C54.348 16.8607 55.4269 19.6891 55.7436 20.7983C56.1203 22.1179 56.5383 23.4272 56.9032 24.7499C56.9801 25.0285 57.1577 25.7829 56.9212 25.6167C56.4107 25.2578 58.5232 22.5818 58.706 22.2801C60.6097 19.1384 61.5049 15.3699 62.0129 11.7652C62.0655 11.3923 62.118 6.94805 61.4955 7.81134C59.2061 10.9864 59.5809 15.2441 60.6665 18.7599C61.1394 20.2916 61.6994 22.2561 62.6989 23.5585C63.1624 24.1625 63.6203 22.1606 63.6752 21.9892C63.9431 21.1523 64.1619 20.3092 64.2924 19.4401C64.3068 19.3445 64.2686 20.3884 64.2712 20.4862C64.2894 21.1981 64.3221 23.7886 65.3261 22.1753C66.1176 20.9034 66.816 18.9059 66.8105 17.3863C66.8035 15.4768 65.8702 21.3117 66.5193 23.1075C67.1413 24.8281 67.838 24.7684 68.9477 23.4597C70.7548 21.3287 71.9147 18.8268 72.329 16.0669C72.6773 13.7473 72.7454 10.3579 70.705 8.71258C69.1963 7.49598 67.9586 9.22485 67.453 10.5575C66.0459 14.2666 67.6095 18.4722 69.778 21.5475C70.4299 22.472 71.3764 24.0069 72.436 24.5636C72.829 24.7701 73.3391 23.4176 73.4207 23.2671C75.1746 20.0307 76.3544 17.0259 76.7287 13.3203C76.9071 11.5543 76.88 9.81091 76.5676 8.06205C76.5626 8.03412 76.26 6.15088 75.9823 6.36938C73.6071 8.23835 73.0566 12.4631 73.4767 15.1652C73.969 18.3327 75.8146 21.1993 77.8241 23.6197C78.8161 24.8144 80.1473 26.3921 81.5644 27.1562C81.8707 27.3214 82.1821 24.6038 82.2523 24.1364" stroke="#3D8FB1" stroke-linecap="round" stroke-linejoin="round"/>
</g>
<defs>
<clipPath id="clip0_dav-sig">
<rect width="84" height="36" fill="white"/>
</clipPath>
</defs>
</svg>
