<svg width="32" height="32" viewBox="0 0 32 32" fill="none" xmlns="http://www.w3.org/2000/svg">
<path d="M16.4764 0C7.91733 0 0.952759 6.96295 0.952759 15.5234C0.952759 24.0838 7.91733 31.0467 16.4764 31.0467C25.0354 31.0467 32 24.0838 32 15.5234C32 6.96295 25.0354 0 16.4764 0ZM16.4764 30.0127C8.48754 30.0127 1.98863 23.5125 1.98863 15.5234C1.98863 7.53416 8.48754 1.03399 16.4764 1.03399C24.4652 1.03399 30.9641 7.53416 30.9641 15.5234C30.9641 23.5125 24.4652 30.0127 16.4764 30.0127Z" fill="white"/>
<path d="M19.8647 6.81022H17.2818C13.9921 6.7773 13.572 8.81332 13.572 11.0168V12.6191H12.1198C12.0542 12.6104 11.9874 12.6168 11.9247 12.6381C11.8619 12.6593 11.805 12.6947 11.7581 12.7415C11.7113 12.7883 11.6759 12.8453 11.6547 12.9081C11.6335 12.9708 11.627 13.0376 11.6358 13.1032V16.0077C11.627 16.0733 11.6335 16.1401 11.6547 16.2028C11.6759 16.2655 11.7113 16.3225 11.7581 16.3693C11.805 16.4162 11.8619 16.4516 11.9247 16.4728C11.9874 16.494 12.0542 16.5005 12.1198 16.4917H13.572V23.7529C13.5639 23.8186 13.571 23.8854 13.5926 23.948C13.6143 24.0106 13.65 24.0674 13.697 24.1141C13.744 24.1608 13.801 24.1962 13.8637 24.2175C13.9265 24.2387 13.9932 24.2454 14.0589 24.237H17.0165C17.3021 24.2699 17.5335 24.0385 17.4425 23.7529L17.4444 16.4917H19.8647C19.9303 16.5005 19.9971 16.494 20.0598 16.4728C20.1225 16.4516 20.1795 16.4162 20.2263 16.3693C20.2732 16.3225 20.3086 16.2655 20.3298 16.2028C20.351 16.1401 20.3575 16.0733 20.3487 16.0077V13.1032C20.3575 13.0376 20.351 12.9708 20.3298 12.9081C20.3086 12.8453 20.2732 12.7883 20.2263 12.7415C20.1795 12.6947 20.1225 12.6593 20.0598 12.6381C19.9971 12.6168 19.9303 12.6104 19.8647 12.6191H17.4415L17.4444 11.1669C17.5383 10.5483 17.5383 10.6489 18.1124 10.6828H19.8443C19.9789 10.6528 20.1222 10.6693 20.2229 10.5715C20.3236 10.4737 20.3816 10.3401 20.3478 10.1987V7.29429C20.3567 7.22871 20.3504 7.16195 20.3293 7.09921C20.3082 7.03647 20.2729 6.97946 20.2261 6.9326C20.1793 6.88575 20.1224 6.85033 20.0597 6.8291C19.997 6.80788 19.9303 6.80141 19.8647 6.81022V6.81022ZM19.3467 9.66046L18.1327 9.61399C16.6293 9.61399 16.5034 10.4301 16.5034 11.2657L16.4995 13.1013C16.4994 13.1692 16.5127 13.2366 16.5386 13.2994C16.5645 13.3622 16.6026 13.4194 16.6506 13.4675C16.6986 13.5156 16.7557 13.5537 16.8184 13.5798C16.8812 13.6058 16.9485 13.6192 17.0165 13.6192H19.3806V15.4897H17.0184C16.8812 15.4897 16.7496 15.5441 16.6525 15.6411C16.5554 15.738 16.5008 15.8695 16.5005 16.0067L16.4995 23.2688H14.5401V16.0077C14.5401 15.7221 14.3455 15.4907 14.0589 15.4907H12.6039V13.6202H14.0589C14.1269 13.6203 14.1941 13.607 14.2569 13.5811C14.3197 13.5552 14.3768 13.5171 14.4249 13.4692C14.5217 13.3714 14.5391 13.2397 14.5391 13.1022V11.0159C14.5391 8.84527 14.9777 7.81129 17.2808 7.81129H19.3458V9.66046H19.3467Z" fill="white"/>
</svg>
