<svg width="1408" height="719" viewBox="0 0 1408 719" fill="none" xmlns="http://www.w3.org/2000/svg">
<g clip-path="url(#clip0_framehaze)">
<g filter="url(#filter0_f_framehaze)">
<path d="M34.4746 606.07C34.4746 628.09 35.6093 649.461 34.4746 671.022C34.2109 676.031 30.4793 681.459 31.6042 686.521C33.1147 693.318 43.7456 695.632 43.3316 703.497C42.9043 711.617 29.0353 716.783 43.3316 716.783C57.0837 716.783 74.1813 716.467 87.6167 719.079C123.569 726.07 158.437 733.021 195.377 733.021C203.39 733.021 210.775 734.497 218.75 734.497C225.631 734.497 205.858 729.548 199.15 728.018C191.12 726.187 182.283 722.916 174.055 722.688C166.897 722.489 160.575 718.498 153.716 716.783M153.716 716.783C146.122 714.884 137.88 713.057 130.59 710.222C120.404 706.261 114.138 698.186 104.675 692.508M153.716 716.783C144.867 711.299 106.725 757.748 103.937 722.238C103.937 765.674 114.263 711.853 117.55 716.783C121.101 722.109 108.19 704.855 111.624 710.222C116.283 717.501 106.376 716.373 104.675 692.508M153.716 716.783C176.786 731.08 171.988 701.142 195.049 714.979C206.764 722.008 216.009 730.562 229.985 733.103C236.401 734.269 244.17 735.973 250.734 735.973C256.319 735.973 260.89 738.629 266.233 738.926C271.977 739.245 277.891 740.402 284.029 740.402C302.425 740.402 320.841 741.878 339.14 741.878C358.368 741.878 384.998 746.149 403.763 739.582C423.993 732.501 450.915 735.973 472.077 735.973C482.896 735.973 492.949 738.926 503.897 738.926C517.554 738.926 531.423 740.402 545.23 740.402C559.554 740.402 573.878 740.402 588.203 740.402C602.487 740.402 618.82 739.091 632.734 742.698C653.495 748.08 676.461 747.58 698.013 749.177C709.586 750.034 721.467 750.391 733.032 751.883C741.806 753.015 761.13 755.231 769.28 750.735C778.807 745.478 793.69 750.515 804.462 748.521C817.211 746.16 831.973 747.783 844.893 747.783C860.062 747.783 874.856 747.504 889.916 746.388C901.125 745.558 911.816 742.709 923.048 741.96C936.493 741.063 950.567 738.926 963.888 738.926C969.854 738.926 974.891 739.787 980.7 741.058C984.796 741.954 990.136 740.739 993.986 742.206C1011.5 748.878 1030.85 746.535 1048.93 746.306C1068.84 746.054 1087.91 741.878 1107.98 741.878C1118.67 741.878 1129.36 741.878 1140.04 741.878C1151.79 741.878 1165.51 739.998 1177.03 742.616C1196.14 746.959 1217.15 744.83 1236.73 744.83C1257.18 744.83 1277.63 744.83 1298.08 744.83M104.675 692.508C87.8215 682.396 57.1536 706.582 53.6648 686.521C52.1323 677.71 34.3105 713.175 48.4162 657.08C20.8219 690.622 34.4746 606.07 53.6648 597.213C31.6042 597.213 31.6042 584.174 48.4162 584.174C31.6042 584.174 36.719 600.471 35.4587 605.168C33.643 611.936 33.1044 621.26 37.4269 627.065C53.4859 648.629 74.3312 665.26 74.3312 693.82C74.3312 703.309 86.6713 704.554 93.5214 702.841C105.639 699.812 109.088 707.446 104.675 692.508Z" stroke="black" stroke-opacity="0.88" stroke-width="40" stroke-linecap="round" stroke-linejoin="round"/>
</g>
<g filter="url(#filter1_f_framehaze)">
<path d="M1404.6 137.078C1404.6 117.044 1403.35 97.6004 1404.6 77.9839C1404.89 73.426 1409.01 68.4877 1407.77 63.8819C1406.1 57.6979 1394.38 55.5931 1394.83 48.4368C1395.3 41.0498 1417.11 14.8605 1401.35 14.8605C1386.18 14.8605 1375.46 15.8943 1360.64 13.5175C1320.99 7.15727 1267.89 21.5758 1227.15 21.5758C1218.31 21.5758 1210.16 20.2327 1201.37 20.2327C1193.78 20.2327 1215.59 24.7351 1222.99 26.1272C1231.84 27.7935 1276.8 15.9956 1285.88 16.2036C1293.77 16.3845 1265.53 34.7894 1273.09 36.3493M1273.09 36.3493C1281.47 38.0766 1290.56 39.739 1298.6 42.3184C1309.83 45.9224 1316.74 53.2693 1327.18 58.435M1273.09 36.3493C1282.85 41.3387 1357.57 -1.33067 1360.64 30.9771C1360.64 -8.54137 1316.6 40.835 1312.98 36.3493C1309.06 31.5034 1323.3 47.2012 1319.51 42.3184C1314.38 35.6962 1325.3 36.7224 1327.18 58.435M1273.09 36.3493C1273.09 5.45918 1252.94 50.5796 1227.51 37.9909C1214.59 31.5959 1204.39 23.8132 1188.98 21.5012C1181.9 20.4399 1173.33 18.8897 1166.09 18.8897C1159.93 18.8897 1154.89 16.4737 1149 16.2036C1142.66 15.9133 1136.14 14.8605 1129.37 14.8605C1109.09 14.8605 1088.77 13.5175 1068.59 13.5175C1047.39 13.5175 1018.02 9.63111 997.321 15.6067C975.01 22.0484 945.318 18.8897 921.979 18.8897C910.047 18.8897 898.96 16.2036 886.885 16.2036C871.824 16.2036 856.528 14.8605 841.3 14.8605C825.502 14.8605 809.704 14.8605 793.906 14.8605C778.152 14.8605 760.139 16.0533 744.794 12.7713C721.897 7.87431 696.568 8.32939 672.798 6.87686C660.035 6.09696 646.932 5.77224 634.177 4.4146C624.5 3.38447 603.188 1.36848 594.2 5.45918C583.692 10.2418 567.278 5.65887 555.398 7.47377C541.337 9.62188 525.057 8.14529 510.808 8.14529C494.078 8.14529 477.762 8.3988 461.153 9.41373C448.791 10.1691 436.999 12.7616 424.612 13.4429C409.783 14.2584 394.262 16.2036 379.57 16.2036C372.99 16.2036 367.436 15.4198 361.028 14.2636C356.511 13.4484 350.622 14.5535 346.376 13.219C327.061 7.14885 305.725 9.28004 285.777 9.48834C263.826 9.71756 242.788 13.5175 220.655 13.5175C208.867 13.5175 197.079 13.5175 185.291 13.5175C172.334 13.5175 157.203 15.2277 144.499 12.846C123.423 8.89439 100.258 10.8314 78.6542 10.8314C56.1028 10.8314 33.5514 10.8314 11 10.8314M1327.18 58.435C1345.77 67.6351 1379.59 45.6304 1383.44 63.8819C1385.13 71.899 1404.78 39.6323 1389.23 90.6682C1419.66 60.1512 1404.6 137.078 1383.44 145.136C1407.77 145.137 1407.77 157 1389.23 157C1407.77 157 1402.13 142.173 1403.52 137.899C1405.52 131.742 1406.11 123.258 1401.35 117.977C1383.63 98.3567 1360.64 83.2263 1360.64 57.2412C1360.64 48.6078 1347.04 47.4756 1339.48 49.0337C1326.12 51.79 1322.31 44.8438 1327.18 58.435Z" stroke="black" stroke-opacity="0.88" stroke-width="40" stroke-linecap="round" stroke-linejoin="round"/>
</g>
<g filter="url(#filter2_f_framehaze)">
<path d="M0 16H11L0 796V403.042V209.521V16Z" stroke="black" stroke-width="50" stroke-linecap="round" stroke-linejoin="round"/>
</g>
<g filter="url(#filter3_f_framehaze)">
<path d="M442 717.5L36 726.5H28.5L1417.5 742.5L1100.5 726.5L442 717.5Z" stroke="black" stroke-width="50" stroke-linecap="round" stroke-linejoin="round"/>
</g>
<g filter="url(#filter4_f_framehaze)">
<path d="M1401 3H1412L1401 783V390.042V196.521V3Z" stroke="black" stroke-width="50" stroke-linecap="round" stroke-linejoin="round"/>
</g>
<g filter="url(#filter5_f_framehaze)">
<path d="M1226.9 8.2388C1244.02 8.2388 1261.09 8.85677 1278.19 8.85677C1284.98 8.85677 1291.86 8.58503 1298.57 9.78372C1306.72 11.239 1315.17 11.0547 1323.41 11.878C1331.44 12.6809 1339.26 12.8736 1347.35 12.8736C1353.92 12.8736 1360.08 14.0209 1366.56 14.7962C1371.17 15.3474 1375.5 17.0938 1380.02 17.8173C1381.89 18.1165 1383.56 19.0662 1385.32 19.6884C1387.44 20.4354 1390.19 21.048 1391.73 22.5895C1393.38 24.238 1395.42 26.0531 1397.32 27.3959C1399.43 28.8861 1401.7 31.2906 1404.38 31.6874C1406.64 32.0228 1406.29 28.3633 1406.58 26.9152C1407.11 24.2297 1406.52 21.8421 1405.65 19.3279C1404.87 17.0718 1404.06 14.5686 1403.49 12.2556C1402.97 10.1999 1401.33 7.87344 1401.17 5.83558C1400.96 3.11636 1400.75 11.2807 1400.31 13.9722C1399.9 16.4747 1400.2 19.128 1399.92 21.6625C1399.48 25.512 1398.78 29.3368 1398.1 33.1465C1397.22 38.0209 1395.43 43.5691 1395.62 48.5442C1395.77 52.3737 1397.92 54.8062 1400.17 57.6765C1402.02 60.0333 1402.69 63.9597 1402.95 66.8773C1403.31 70.7946 1401.6 74.3191 1401.8 78.2068C1401.91 80.2403 1402.37 82.7607 1402.88 84.747C1403.17 85.8608 1403.35 87.2001 1403.95 88.1973C1404.43 89.006 1405.11 89.7728 1405.43 90.6692C1406.29 93.101 1406.74 95.6675 1407.81 98.0162C1408.73 100.026 1409.7 102.953 1411.98 103.715" stroke="black" stroke-opacity="0.88" stroke-width="40" stroke-linecap="round" stroke-linejoin="round"/>
</g>
<line x1="1268.24" y1="0.437079" x2="1259.24" y2="5.43708" stroke="black"/>
<g filter="url(#filter6_f_framehaze)">
<line x1="20.023" y1="-8.49998" x2="1366.02" y2="-6.49998" stroke="black" stroke-width="31"/>
</g>
<g filter="url(#filter7_f_framehaze)">
<line x1="20.023" y1="699.5" x2="1366.02" y2="701.5" stroke="black" stroke-width="31"/>
</g>
<g filter="url(#filter8_f_framehaze)">
<line x1="15.4999" y1="6.93451" x2="18.4999" y2="716.935" stroke="black" stroke-width="31"/>
</g>
<g filter="url(#filter9_f_framehaze)">
<line x1="1397.5" y1="-1.06549" x2="1400.5" y2="708.935" stroke="black" stroke-width="31"/>
</g>
<g filter="url(#filter10_f_framehaze)">
<line x1="806" y1="714.5" x2="1535" y2="714.5" stroke="black" stroke-width="31"/>
</g>
</g>
<defs>
<filter id="filter0_f_framehaze" x="-18.5988" y="534.174" width="1366.68" height="269.264" filterUnits="userSpaceOnUse" color-interpolation-filters="sRGB">
<feFlood flood-opacity="0" result="BackgroundImageFix"/>
<feBlend mode="normal" in="SourceGraphic" in2="BackgroundImageFix" result="shape"/>
<feGaussianBlur stdDeviation="15" result="effect1_foregroundBlur"/>
</filter>
<filter id="filter1_f_framehaze" x="-39" y="-47" width="1496.99" height="254" filterUnits="userSpaceOnUse" color-interpolation-filters="sRGB">
<feFlood flood-opacity="0" result="BackgroundImageFix"/>
<feBlend mode="normal" in="SourceGraphic" in2="BackgroundImageFix" result="shape"/>
<feGaussianBlur stdDeviation="15" result="effect1_foregroundBlur"/>
</filter>
<filter id="filter2_f_framehaze" x="-45" y="-29" width="101" height="870" filterUnits="userSpaceOnUse" color-interpolation-filters="sRGB">
<feFlood flood-opacity="0" result="BackgroundImageFix"/>
<feBlend mode="normal" in="SourceGraphic" in2="BackgroundImageFix" result="shape"/>
<feGaussianBlur stdDeviation="10" result="effect1_foregroundBlur"/>
</filter>
<filter id="filter3_f_framehaze" x="-26.5" y="662.5" width="1499" height="135" filterUnits="userSpaceOnUse" color-interpolation-filters="sRGB">
<feFlood flood-opacity="0" result="BackgroundImageFix"/>
<feBlend mode="normal" in="SourceGraphic" in2="BackgroundImageFix" result="shape"/>
<feGaussianBlur stdDeviation="15" result="effect1_foregroundBlur"/>
</filter>
<filter id="filter4_f_framehaze" x="1356" y="-42" width="101" height="870" filterUnits="userSpaceOnUse" color-interpolation-filters="sRGB">
<feFlood flood-opacity="0" result="BackgroundImageFix"/>
<feBlend mode="normal" in="SourceGraphic" in2="BackgroundImageFix" result="shape"/>
<feGaussianBlur stdDeviation="10" result="effect1_foregroundBlur"/>
</filter>
<filter id="filter5_f_framehaze" x="1181.9" y="-39.7163" width="275.088" height="188.437" filterUnits="userSpaceOnUse" color-interpolation-filters="sRGB">
<feFlood flood-opacity="0" result="BackgroundImageFix"/>
<feBlend mode="normal" in="SourceGraphic" in2="BackgroundImageFix" result="shape"/>
<feGaussianBlur stdDeviation="12.5" result="effect1_foregroundBlur"/>
</filter>
<filter id="filter6_f_framehaze" x="-5" y="-49" width="1396.05" height="83" filterUnits="userSpaceOnUse" color-interpolation-filters="sRGB">
<feFlood flood-opacity="0" result="BackgroundImageFix"/>
<feBlend mode="normal" in="SourceGraphic" in2="BackgroundImageFix" result="shape"/>
<feGaussianBlur stdDeviation="12.5" result="effect1_foregroundBlur"/>
</filter>
<filter id="filter7_f_framehaze" x="-5" y="659" width="1396.05" height="83" filterUnits="userSpaceOnUse" color-interpolation-filters="sRGB">
<feFlood flood-opacity="0" result="BackgroundImageFix"/>
<feBlend mode="normal" in="SourceGraphic" in2="BackgroundImageFix" result="shape"/>
<feGaussianBlur stdDeviation="12.5" result="effect1_foregroundBlur"/>
</filter>
<filter id="filter8_f_framehaze" x="-25" y="-18.1311" width="83.9997" height="760.131" filterUnits="userSpaceOnUse" color-interpolation-filters="sRGB">
<feFlood flood-opacity="0" result="BackgroundImageFix"/>
<feBlend mode="normal" in="SourceGraphic" in2="BackgroundImageFix" result="shape"/>
<feGaussianBlur stdDeviation="12.5" result="effect1_foregroundBlur"/>
</filter>
<filter id="filter9_f_framehaze" x="1357" y="-26.1311" width="83.9997" height="760.131" filterUnits="userSpaceOnUse" color-interpolation-filters="sRGB">
<feFlood flood-opacity="0" result="BackgroundImageFix"/>
<feBlend mode="normal" in="SourceGraphic" in2="BackgroundImageFix" result="shape"/>
<feGaussianBlur stdDeviation="12.5" result="effect1_foregroundBlur"/>
</filter>
<filter id="filter10_f_framehaze" x="781" y="674" width="779" height="81" filterUnits="userSpaceOnUse" color-interpolation-filters="sRGB">
<feFlood flood-opacity="0" result="BackgroundImageFix"/>
<feBlend mode="normal" in="SourceGraphic" in2="BackgroundImageFix" result="shape"/>
<feGaussianBlur stdDeviation="12.5" result="effect1_foregroundBlur"/>
</filter>
<clipPath id="clip0_framehaze">
<rect width="1408" height="720" fill="white" transform="translate(0 -1)"/>
</clipPath>
</defs>
</svg>
