<svg width="34" height="28" viewBox="0 0 34 28" fill="none" xmlns="http://www.w3.org/2000/svg">
<path d="M26.3206 8.85127C25.5405 7.03067 24.9961 5.12288 22.8615 4.61245C22.3087 4.48026 21.2493 4.53862 20.2999 5.34311C18.8519 6.57013 18.392 8.89875 18.1003 9.94463C16.9554 14.0504 17.8895 17.0988 18.8911 19.7458C19.5314 21.438 20.9857 23.2947 23.5926 22.8013C24.6651 22.5983 26.447 20.7092 26.6388 19.696" stroke="#3D8FB1" stroke-linecap="round"/>
<path d="M4 7.90501C7 6 7 5.93067 9.70898 5.10955C11.3709 4.60579 14.7006 5.71293 15.7942 11.0951C16.9132 16.6018 13.342 23.0001 8.15198 23.0001" stroke="#3D8FB1" stroke-linecap="round"/>
<path d="M9 8C9 12.0269 9 15.9811 9 20" stroke="#3D8FB1" stroke-linecap="round"/>
</svg>
