<svg width="32" height="32" viewBox="0 0 32 32" fill="none" xmlns="http://www.w3.org/2000/svg">
<path d="M16.2759 9.02468C14.8418 9.02468 13.4398 9.44996 12.2473 10.2467C11.0549 11.0435 10.1255 12.176 9.57665 13.501C9.02782 14.826 8.88422 16.284 9.16401 17.6906C9.4438 19.0972 10.1344 20.3892 11.1485 21.4033C12.1626 22.4174 13.4547 23.108 14.8613 23.3878C16.2679 23.6676 17.7258 23.524 19.0508 22.9752C20.3758 22.4263 21.5083 21.4969 22.3051 20.3045C23.1019 19.112 23.5271 17.7101 23.5271 16.2759C23.525 14.3534 22.7603 12.5103 21.4009 11.1509C20.0415 9.79151 18.1984 9.02685 16.2759 9.02468V9.02468ZM16.2759 21.6355C15.2159 21.6355 14.1797 21.3212 13.2983 20.7323C12.4169 20.1433 11.7299 19.3063 11.3243 18.3269C10.9186 17.3476 10.8125 16.27 11.0193 15.2303C11.2261 14.1906 11.7365 13.2357 12.4861 12.4861C13.2357 11.7365 14.1906 11.2261 15.2303 11.0193C16.27 10.8125 17.3476 10.9186 18.3269 11.3243C19.3063 11.7299 20.1433 12.4169 20.7323 13.2983C21.3212 14.1797 21.6355 15.2159 21.6355 16.2759C21.6339 17.6969 21.0687 19.0592 20.0639 20.0639C19.0592 21.0687 17.6969 21.6339 16.2759 21.6355V21.6355ZM23.2119 0.827637H9.33995C7.08314 0.830223 4.9195 1.72788 3.32369 3.32369C1.72788 4.9195 0.830223 7.08314 0.827637 9.33995V23.2119C0.830223 25.4687 1.72788 27.6323 3.32369 29.2281C4.9195 30.8239 7.08314 31.7216 9.33995 31.7242H23.2119C25.4687 31.7216 27.6323 30.8239 29.2281 29.2281C30.8239 27.6323 31.7216 25.4687 31.7242 23.2119V9.33995C31.7216 7.08314 30.8239 4.9195 29.2281 3.32369C27.6323 1.72788 25.4687 0.830223 23.2119 0.827637ZM29.8326 23.2119C29.8306 24.9672 29.1324 26.65 27.8912 27.8912C26.65 29.1324 24.9672 29.8306 23.2119 29.8326H9.33995C7.58464 29.8306 5.90178 29.1324 4.66058 27.8912C3.41939 26.65 2.72122 24.9672 2.71926 23.2119V9.33995C2.72122 7.58464 3.41939 5.90178 4.66058 4.66058C5.90178 3.41939 7.58464 2.72122 9.33995 2.71926H23.2119C24.9672 2.72122 26.65 3.41939 27.8912 4.66058C29.1324 5.90178 29.8306 7.58464 29.8326 9.33995V23.2119ZM26.0493 8.07887C26.0493 8.39064 25.9569 8.69541 25.7836 8.95464C25.6104 9.21387 25.3642 9.41592 25.0762 9.53523C24.7882 9.65454 24.4712 9.68576 24.1654 9.62493C23.8596 9.56411 23.5788 9.41398 23.3583 9.19352C23.1378 8.97306 22.9877 8.69218 22.9269 8.3864C22.8661 8.08062 22.8973 7.76366 23.0166 7.47562C23.1359 7.18758 23.3379 6.94139 23.5972 6.76818C23.8564 6.59496 24.1612 6.50251 24.473 6.50251C24.8909 6.50301 25.2915 6.66925 25.5871 6.96477C25.8826 7.26029 26.0488 7.66095 26.0493 8.07887V8.07887Z" fill="white"/>
</svg>
