<svg width="32" height="32" viewBox="0 0 32 32" fill="none" xmlns="http://www.w3.org/2000/svg">
<g clip-path="url(#clip0)">
<path d="M19.5149 11.9521C18.8369 11.9521 18.3349 12.1231 17.9419 12.3391C17.8789 12.1151 17.6719 11.9511 17.4279 12.0001H14.4439C14.1489 11.9511 13.9099 12.1901 14.0009 12.5001V23.5001C13.9099 23.7801 14.1489 24.0201 14.4439 24.0001H17.4279C17.7229 24.0201 17.9619 23.7801 17.9619 23.4851L17.9609 16.8371C17.9599 16.8341 17.9489 16.5161 18.1499 16.2971C18.3109 16.1231 18.5879 16.0341 18.9709 16.0341C19.6089 16.0341 19.8929 16.2951 19.9989 16.8791V23.4851C19.8939 23.7801 20.1329 24.0201 20.4279 24.0001H23.5729C23.8679 24.0201 24.1069 23.7801 24.0009 23.4851V16.6571C24.1059 13.1851 21.6329 11.9521 19.5149 11.9521V11.9521ZM23.0379 23.0001H20.9619V16.8791C20.9619 15.6981 20.1989 14.9661 18.9719 14.9661C18.2779 14.9661 17.7379 15.1701 17.3659 15.5721C16.8489 16.1321 16.8889 16.8421 16.9999 17.0001V23.0001H14.9779V13.0201H16.8939V13.3561C16.8931 13.4562 16.9206 13.5545 16.9732 13.6397C17.0258 13.7249 17.1013 13.7935 17.1911 13.8377C17.2809 13.8819 17.3814 13.8998 17.4809 13.8895C17.5805 13.8791 17.6751 13.8409 17.7539 13.7791L17.8939 13.6711C18.2989 13.3521 18.7179 13.0211 19.5159 13.0211C20.3419 13.0211 23.0389 13.2841 23.0389 16.6581V23.0001H23.0379Z" fill="white"/>
<path d="M10.9999 6.96582C9.87794 6.96582 8.96594 7.87782 8.96594 8.99982C8.96594 10.1218 9.87794 11.0338 10.9999 11.0338C12.1219 11.0338 13.0339 10.1218 13.0339 8.99982C13.0339 7.87782 12.1219 6.96582 10.9999 6.96582ZM10.9999 9.96582C10.4679 9.96582 10.0339 9.53182 10.0339 8.99982C10.0339 8.46782 10.4679 8.03382 10.9999 8.03382C11.5319 8.03382 11.9659 8.46782 11.9659 8.99982C11.9659 9.53182 11.5319 9.96582 10.9999 9.96582Z" fill="white"/>
<path d="M12.4279 11.9512H9.45991C9.16491 11.9512 8.92591 12.1902 8.99991 12.5002V23.5002C8.92591 23.7802 9.16491 24.0202 9.45991 24.0002H12.4279C12.7229 24.0202 12.9619 23.7802 12.9619 23.4852V12.4852C12.9619 12.3435 12.9056 12.2077 12.8055 12.1076C12.7054 12.0074 12.5695 11.9512 12.4279 11.9512ZM11.9999 23.0002H9.99391V13.0202H11.9999V23.0002Z" fill="white"/>
<path d="M15.9999 -0.0341797C7.15794 -0.0341797 -0.0340576 7.15782 -0.0340576 15.9998C-0.0340576 24.8418 7.15794 32.0338 15.9999 32.0338C24.8419 32.0338 32.0339 24.8418 32.0339 15.9998C32.0339 7.15782 24.8419 -0.0341797 15.9999 -0.0341797ZM15.9999 30.9658C7.74794 30.9658 1.03394 24.2518 1.03394 15.9998C1.03394 7.74782 7.74794 1.03382 15.9999 1.03382C24.2519 1.03382 30.9659 7.74782 30.9659 15.9998C30.9659 24.2518 24.2519 30.9658 15.9999 30.9658Z" fill="white"/>
</g>
<defs>
<clipPath id="clip0">
<rect width="32" height="32" fill="white"/>
</clipPath>
</defs>
</svg>
