<svg width="250" height="250" viewBox="0 0 250 250" fill="none" xmlns="http://www.w3.org/2000/svg">
<circle cx="125" cy="125" r="125" fill="black"/>
<path d="M68.3073 108.057C66.1106 125.875 67.1611 142.967 67.1611 160.783" stroke="#45D6D6" stroke-width="5" stroke-linecap="round"/>
<path d="M38.5051 102.326C57.2105 84.7211 80.7377 72.7464 104.986 64.8191C126.206 57.8818 146.863 55.6645 169.111 56.6681C174.115 56.8939 192.589 56.4428 194.073 63.8639C196.128 74.1363 185.192 85.0415 179.109 91.3733C147.932 123.825 109.473 149.282 74.6749 177.595C47.7291 199.518 85.4688 164.779 61.5001 190" stroke="#45D6D6" stroke-width="5" stroke-linecap="round"/>
<path d="M130.204 151.614C128.004 152.923 121.292 156.643 123.581 155.498C125.891 154.343 128.181 153.074 130.586 152.123C135.049 150.358 131.113 153.906 133.642 153.906C136.492 153.906 139.627 154.671 142.175 153.397C144.508 152.231 144.65 154.318 148.097 153.269C160.437 149.514 172.132 140.667 182.866 133.784C192.75 127.445 205.637 118.056 210.248 106.529C210.55 105.775 205.706 120.231 204.453 123.404C196.49 143.578 184.042 162.032 177.199 182.562" stroke="#45D6D6" stroke-width="5" stroke-linecap="round"/>
</svg>
