<svg width="258" height="258" viewBox="0 0 258 258" fill="none" xmlns="http://www.w3.org/2000/svg">
<g filter="url(#filter0_d)">
<circle cx="129" cy="125" r="122" fill="#17161B"/>
</g>
<path d="M126.979 205.576C120.355 205.576 114.067 204.328 108.115 201.832C102.259 199.336 97.0749 195.832 92.5629 191.32C88.0509 186.904 84.5469 181.768 82.0509 175.912C79.5549 169.96 78.3069 163.72 78.3069 157.192C78.3069 150.664 79.5549 144.472 82.0509 138.616C84.5469 132.664 88.0509 127.432 92.5629 122.92C97.0749 118.504 102.307 115.048 108.259 112.552C114.211 110.056 120.451 108.808 126.979 108.808C133.891 108.808 140.419 110.152 146.563 112.84C152.707 115.432 158.083 119.272 162.691 124.36L157.651 128.536C153.619 124.312 148.963 121.096 143.683 118.888C138.403 116.584 132.835 115.432 126.979 115.432C121.315 115.432 115.891 116.536 110.707 118.744C105.619 120.856 101.155 123.832 97.3149 127.672C93.3789 131.512 90.3069 135.976 88.0989 141.064C85.9869 146.152 84.9309 151.528 84.9309 157.192C84.9309 162.856 85.9869 168.232 88.0989 173.32C90.3069 178.408 93.3789 182.872 97.3149 186.712C101.155 190.552 105.619 193.576 110.707 195.784C115.891 197.896 121.315 198.952 126.979 198.952C132.835 198.952 138.403 197.848 143.683 195.64C148.963 193.336 153.619 190.072 157.651 185.848L162.547 190.024C157.939 195.016 152.563 198.856 146.419 201.544C140.275 204.232 133.795 205.576 126.979 205.576Z" fill="#DBD1DB"/>
<path d="M117.097 97V10.42H138.417C144.397 10.42 150.03 11.5467 155.317 13.8C160.603 15.9667 165.283 19.0433 169.357 23.03C173.43 27.1033 176.593 31.7833 178.847 37.07C181.1 42.27 182.227 47.8167 182.227 53.71C182.227 59.6033 181.1 65.1933 178.847 70.48C176.593 75.68 173.43 80.2733 169.357 84.26C165.283 88.3333 160.603 91.4967 155.317 93.75C150.03 95.9167 144.397 97 138.417 97H117.097ZM123.077 16.27V91.15H138.417C143.53 91.15 148.427 90.1967 153.107 88.29C157.787 86.3833 161.86 83.6967 165.327 80.23C168.793 76.7633 171.48 72.7767 173.387 68.27C175.38 63.6767 176.377 58.8233 176.377 53.71C176.377 48.5967 175.38 43.7867 173.387 39.28C171.48 34.6867 168.793 30.6567 165.327 27.19C161.86 23.7233 157.787 21.0367 153.107 19.13C148.427 17.2233 143.53 16.27 138.417 16.27H123.077Z" fill="#DBD1DB"/>
<line x1="120" y1="90" x2="120" y2="240" stroke="#DBD1DB" stroke-width="6"/>
<defs>
<filter id="filter0_d" x="0" y="0" width="258" height="258" filterUnits="userSpaceOnUse" color-interpolation-filters="sRGB">
<feFlood flood-opacity="0" result="BackgroundImageFix"/>
<feColorMatrix in="SourceAlpha" type="matrix" values="0 0 0 0 0 0 0 0 0 0 0 0 0 0 0 0 0 0 127 0"/>
<feMorphology radius="3" operator="dilate" in="SourceAlpha" result="effect1_dropShadow"/>
<feOffset dy="4"/>
<feGaussianBlur stdDeviation="2"/>
<feColorMatrix type="matrix" values="0 0 0 0 0.0125 0 0 0 0 0.011875 0 0 0 0 0.011875 0 0 0 0.2 0"/>
<feBlend mode="normal" in2="BackgroundImageFix" result="effect1_dropShadow"/>
<feBlend mode="normal" in="SourceGraphic" in2="effect1_dropShadow" result="shape"/>
</filter>
</defs>
</svg>
