<svg width="24" height="38" viewBox="0 0 24 38" fill="none" xmlns="http://www.w3.org/2000/svg">
<g clip-path="url(#clip0)">
<rect y="-0.052063" width="24" height="38" fill="url(#paint0_linear)"/>
<path d="M3.77391 31.9479V24.8379C4.32724 24.7846 4.86391 24.7579 5.38391 24.7579C6.08391 24.7579 6.64391 24.9213 7.06391 25.2479C7.49057 25.5746 7.70391 26.0679 7.70391 26.7279C7.70391 27.3813 7.41391 27.9213 6.83391 28.3479C6.26057 28.7679 5.57391 28.9779 4.77391 28.9779C4.74057 28.9779 4.70391 28.9779 4.66391 28.9779V28.6479C4.69057 28.6479 4.71391 28.6479 4.73391 28.6479C5.39391 28.6479 5.96724 28.4746 6.45391 28.1279C6.94057 27.7813 7.18391 27.3313 7.18391 26.7779C7.18391 26.2179 7.01391 25.8146 6.67391 25.5679C6.33391 25.3146 5.87724 25.1879 5.30391 25.1879C5.00391 25.1879 4.65391 25.2013 4.25391 25.2279V31.9479H3.77391ZM11.6745 31.5979C12.6145 31.5979 13.3678 31.3446 13.9345 30.8379C14.5078 30.3246 14.7945 29.5546 14.7945 28.5279C14.7945 27.5013 14.4711 26.6846 13.8245 26.0779C13.1845 25.4713 12.3911 25.1679 11.4445 25.1679C10.8378 25.1679 10.3111 25.1846 9.86445 25.2179V31.5179C10.2978 31.5713 10.9011 31.5979 11.6745 31.5979ZM11.4445 24.7279C12.5445 24.7279 13.4645 25.0713 14.2045 25.7579C14.9445 26.4379 15.3145 27.3646 15.3145 28.5379C15.3145 29.1313 15.2178 29.6579 15.0245 30.1179C14.8378 30.5713 14.5778 30.9346 14.2445 31.2079C13.5578 31.7613 12.7011 32.0379 11.6745 32.0379C11.0011 32.0379 10.2378 32.0013 9.38445 31.9279V24.7979C10.0645 24.7513 10.7511 24.7279 11.4445 24.7279ZM17.3387 31.9479V24.7979H20.9887V25.2179H17.8187V27.8479H20.7187V28.2579H17.8187V31.9479H17.3387Z" fill="white"/>
<path d="M22.5853 1.49407L22.2905 15.9786L8.0996 1.26643L22.5853 1.49407Z" fill="#C4C4C4"/>
<path d="M0.5 11.9479H23.5M0.5 14.9479H23.5M0.5 17.9479H23.5M0.5 20.9479H23.5M0.5 23.9479H23.5" stroke="white" stroke-opacity="0.08" stroke-width="0.4"/>
</g>
<defs>
<linearGradient id="paint0_linear" x1="2.69048" y1="2.29988" x2="30.7217" y2="16.2961" gradientUnits="userSpaceOnUse">
<stop offset="0.0130452" stop-color="#2C354B"/>
<stop offset="1" stop-color="#2A135A" stop-opacity="0.67"/>
</linearGradient>
<clipPath id="clip0">
<rect width="24" height="38" fill="white"/>
</clipPath>
</defs>
</svg>
