<svg width="38" height="39" viewBox="0 0 38 39" fill="none" xmlns="http://www.w3.org/2000/svg">
<path opacity="0.5" d="M21.5948 1.21875C22.1291 1.21875 22.6338 1.40156 23.0198 1.73672C24.1776 2.77266 24.712 4.17422 24.5932 5.97188C24.3854 9.68906 23.287 11.7 20.7635 14.9602L21.2682 18.1289C22.1588 18.1594 25.0682 18.525 26.1666 21.6633C27.2354 24.6797 26.2854 27.1172 23.3166 28.8844C23.1979 28.9453 23.1088 29.1281 23.1385 29.2805C23.4354 30.682 23.9698 34.125 22.3666 36.0141C21.4166 37.1414 20.0213 37.7508 18.5666 37.7508C18.4182 37.7508 18.2698 37.7508 18.0916 37.7203C16.6963 37.5984 15.5088 36.8672 14.8557 35.7094C14.3213 34.7344 14.262 33.5156 14.7073 32.6625C15.0041 31.9312 15.6276 31.3828 16.3698 31.2609C16.3698 31.2609 16.5776 31.2305 16.8151 31.2305C16.9041 31.2305 17.0229 31.2305 17.112 31.2609C18.2995 31.3523 19.101 32.4188 19.0416 33.7898C19.012 34.582 18.5666 35.2828 17.8541 35.7398C17.587 35.8922 17.3198 36.0141 17.0526 36.0445C17.2901 36.1664 17.5276 36.2273 17.8245 36.2883C18.151 36.3492 18.4776 36.3797 18.7745 36.3797C19.4276 36.3797 19.9916 36.1969 20.4666 35.8617C21.5948 35.0695 21.8026 33.5461 21.8026 33.5461V33.4852C21.8026 33.4852 22.1291 32.3578 21.6245 29.5242C21.6245 29.4633 21.5651 29.4023 21.5057 29.4023C21.2385 29.4328 20.8526 29.4633 20.3479 29.4633C18.7448 29.4633 16.162 29.1586 14.3213 27.4523C13.0151 26.2641 12.3323 24.832 12.3026 23.2172C12.2432 21.0539 13.3416 18.7078 15.4198 16.575C16.1026 15.8742 16.6963 15.2953 17.2307 14.7773C17.9729 14.0461 18.5073 13.4977 18.8041 13.132C18.4776 11.9133 16.5182 4.02188 20.4073 1.49297C20.7932 1.31016 21.1791 1.21875 21.5948 1.21875V1.21875ZM20.3479 11.8828C23.8213 8.34844 22.9604 5.3625 22.0995 3.86953C22.0104 3.71719 21.862 3.59531 21.7135 3.53438H21.5948C21.5057 3.53438 21.4463 3.56484 21.3573 3.59531C19.0416 5.05781 19.9916 10.2375 20.3479 11.8828ZM20.1401 28.1227C20.6448 28.1227 21.0604 28.0617 21.3276 28.0312C21.3573 28.0312 21.387 28.0008 21.387 27.9703C21.4166 27.9398 21.4166 27.8789 21.4166 27.818L20.1995 21.4805C19.576 21.8461 19.1901 22.2727 19.0416 22.7906C18.8041 23.7352 19.487 24.8016 19.9026 25.35C20.051 25.5328 20.051 25.7766 19.9026 25.9898C19.8135 26.1117 19.6651 26.1727 19.5463 26.1727C19.487 26.1727 19.3979 26.1422 19.3385 26.1117C17.587 25.2891 17.201 23.918 17.201 23.857C16.3995 20.7188 19.101 18.9211 19.8729 18.4945L19.487 15.9047C17.112 18.2508 16.162 20.3836 15.7463 21.7547C15.301 23.3391 15.4495 24.3445 15.4495 24.3445C15.6276 25.6242 16.1323 26.5992 16.9932 27.2086C17.9432 27.9703 19.1604 28.1227 20.1401 28.1227V28.1227ZM22.8713 27.5742C23.4057 27.1781 23.8213 26.7211 24.1182 26.2336C24.9495 24.9844 24.8901 23.2172 23.9698 22.0594C23.2573 21.1148 22.2776 20.9625 21.7729 20.9625L22.8713 27.5742Z" fill="#424242"/>
<path d="M7.60588 7.92188H2.26807C1.9415 7.92188 1.67432 8.19609 1.67432 8.53125V30.4688C1.67432 30.8039 1.9415 31.0781 2.26807 31.0781H7.60588V7.92188Z" fill="#616161"/>
<path d="M5.18048 7.92786H36.3256V8.84192H5.18048V7.92786Z" fill="url(#paint0_linear_score)"/>
<path d="M5.18048 13.4884H36.3256V14.4025H5.18048V13.4884Z" fill="url(#paint1_linear_score)"/>
<path d="M5.18048 19.0521H36.3256V19.9662H5.18048V19.0521Z" fill="url(#paint2_linear_score)"/>
<path d="M5.18048 24.6157H36.3256V25.5298H5.18048V24.6157Z" fill="url(#paint3_linear_score)"/>
<path d="M5.18048 30.1763H36.3256V31.0903H5.18048V30.1763Z" fill="url(#paint4_linear_score)"/>
<path d="M23.3166 28.8844C26.2853 27.1172 27.2353 24.7101 26.1666 21.6633C25.0384 18.525 22.1588 18.1594 21.2681 18.1289L20.7634 14.9601C23.2869 11.7 24.3853 9.68904 24.5931 5.97185C24.6822 4.1742 24.1775 2.77264 23.0197 1.7367C22.3369 1.12732 21.2087 1.03592 20.4369 1.52342C16.5478 4.05232 18.5072 11.9437 18.8337 13.1625C18.5369 13.5281 18.0025 14.0765 17.2603 14.8078C16.7259 15.3258 16.1322 15.9351 15.4494 16.6054C13.4009 18.7383 12.2728 21.0844 12.3322 23.2476C12.3619 24.8625 13.0447 26.2945 14.3509 27.4828C16.7853 29.7375 20.4666 29.5547 21.565 29.4328C21.6244 29.4328 21.6541 29.4633 21.6838 29.5547C22.2181 32.3883 21.8619 33.5156 21.8619 33.5156V33.5765C21.8619 33.607 21.6541 35.1 20.5259 35.8922C19.8431 36.3797 18.9525 36.5015 17.8838 36.2883C17.5869 36.2273 17.3197 36.1359 17.1119 36.0445C17.3791 36.014 17.6462 35.8922 17.9134 35.7398C18.5962 35.3133 19.0416 34.582 19.1009 33.7898C19.1603 32.4187 18.3587 31.3828 17.1712 31.2609C16.8744 31.2 16.4291 31.2609 16.4291 31.2609C15.6869 31.4133 15.0634 31.9312 14.7666 32.6625C14.2916 33.5156 14.3509 34.7344 14.915 35.7094C15.5681 36.8672 16.7556 37.5984 18.1509 37.7203C18.2994 37.7508 18.4478 37.7508 18.6259 37.7508C20.0806 37.7508 21.4759 37.1109 22.4259 36.014C24.0291 34.125 23.4947 30.6515 23.1978 29.2804C23.1384 29.1281 23.1978 28.9758 23.3166 28.8844ZM21.3869 3.59529C21.4463 3.56482 21.5353 3.53435 21.6244 3.53435H21.7431C21.8916 3.56482 22.04 3.6867 22.1291 3.86951C22.99 5.36248 23.8509 8.31795 20.3775 11.8828C19.9916 10.2375 19.0416 5.05779 21.3869 3.59529V3.59529ZM21.4166 28.0008C21.3869 28.0312 21.3869 28.0617 21.3572 28.0617C20.5259 28.1836 18.4478 28.3359 16.9931 27.239C16.1619 26.5992 15.6275 25.6547 15.4494 24.375C15.4494 24.375 15.2712 23.3695 15.7462 21.7851C16.1619 20.3836 17.1416 18.2812 19.4869 15.9351L19.8728 18.5859C19.1009 19.0125 16.3994 20.8101 17.2009 23.9484C17.2009 24.0094 17.6166 25.3804 19.3384 26.2031C19.5462 26.2945 19.7837 26.2336 19.9322 26.0812C20.0806 25.8984 20.0806 25.6547 19.9322 25.4414C19.5166 24.8929 18.8337 23.8265 19.0712 22.882C19.19 22.364 19.5759 21.9375 20.2291 21.5719L21.4462 27.9094C21.4462 27.9094 21.4463 27.9703 21.4166 28.0008V28.0008ZM22.8713 27.5742L21.8025 20.9625C22.2775 20.9625 23.2572 21.1148 23.9994 22.0594C24.89 23.2172 24.9494 24.9844 24.1478 26.2336C23.8212 26.7211 23.4056 27.1781 22.8713 27.5742V27.5742Z" fill="#848484"/>
<defs>
<linearGradient id="paint0_linear_score" x1="5.18167" y1="8.38458" x2="36.5094" y2="8.38458" gradientUnits="userSpaceOnUse">
<stop offset="0.261" stop-color="#616161"/>
<stop offset="0.494" stop-color="#434343"/>
<stop offset="0.618" stop-color="#595959"/>
<stop offset="0.7" stop-color="#616161"/>
</linearGradient>
<linearGradient id="paint1_linear_score" x1="5.18167" y1="13.9467" x2="36.3268" y2="13.9467" gradientUnits="userSpaceOnUse">
<stop offset="0.261" stop-color="#616161"/>
<stop offset="0.494" stop-color="#434343"/>
<stop offset="0.613" stop-color="#595959"/>
<stop offset="0.691" stop-color="#616161"/>
</linearGradient>
<linearGradient id="paint2_linear_score" x1="5.18167" y1="19.5092" x2="36.3268" y2="19.5092" gradientUnits="userSpaceOnUse">
<stop offset="0.166" stop-color="#616161"/>
<stop offset="0.494" stop-color="#434343"/>
<stop offset="0.633" stop-color="#595959"/>
<stop offset="0.725" stop-color="#616161"/>
</linearGradient>
<linearGradient id="paint3_linear_score" x1="5.18167" y1="25.0715" x2="36.3268" y2="25.0715" gradientUnits="userSpaceOnUse">
<stop offset="0.151" stop-color="#616161"/>
<stop offset="0.5" stop-color="#434343"/>
<stop offset="0.775" stop-color="#616161"/>
</linearGradient>
<linearGradient id="paint4_linear_score" x1="5.18167" y1="30.6339" x2="36.3268" y2="30.6339" gradientUnits="userSpaceOnUse">
<stop offset="0.355" stop-color="#616161"/>
<stop offset="0.582" stop-color="#434343"/>
<stop offset="0.679" stop-color="#595959"/>
<stop offset="0.743" stop-color="#616161"/>
</linearGradient>
</defs>
</svg>
