<svg width="1408" height="720" viewBox="0 0 1408 720" fill="none" xmlns="http://www.w3.org/2000/svg">
<g clip-path="url(#clip0s4)">
<rect width="1408" height="719.84" fill="#17161B"/>
<g filter="url(#filter0_fs4)">
<path d="M246.72 103.865L-38.7202 418.488L50.3333 767.451L757.605 816.64L1268.96 742.393V305.261L1048.2 -121.661L633.868 -151.36L246.72 103.865Z" fill="url(#paint0_radials4)"/>
<path d="M246.72 103.865L-38.7202 418.488L50.3333 767.451L757.605 816.64L1268.96 742.393V305.261L1048.2 -121.661L633.868 -151.36L246.72 103.865Z" stroke="black" stroke-width="0.88"/>
</g>
<g filter="url(#filter1_fs4)">
<path d="M327.667 211.84L36.0801 415.487L127.051 641.361L849.554 673.2L1371.92 625.142V342.198L1146.41 65.8632L723.152 46.6399L327.667 211.84Z" fill="url(#paint1_radials4)"/>
<path d="M327.667 211.84L36.0801 415.487L127.051 641.361L849.554 673.2L1371.92 625.142V342.198L1146.41 65.8632L723.152 46.6399L327.667 211.84Z" stroke="black" stroke-width="0.88"/>
</g>
<g filter="url(#filter2_fs4)">
<rect x="-77" y="-63" width="1561" height="900" fill="url(#paint2_radials4)"/>
<rect x="-77" y="-63" width="1561" height="900" fill="url(#paint3_radials4)"/>
<rect x="-77" y="-63" width="1561" height="900" fill="url(#paint4_radials4)"/>
<rect x="-77" y="-63" width="1561" height="900" fill="url(#paint5_linears4)"/>
<rect x="-77" y="-63" width="1561" height="900" fill="url(#paint6_linears4)"/>
<rect x="-66.5" y="-52.5" width="1540" height="879" stroke="black" stroke-width="21"/>
</g>
</g>
<defs>
<filter id="filter0_fs4" x="-171.205" y="-283.81" width="1572.6" height="1232.89" filterUnits="userSpaceOnUse" color-interpolation-filters="sRGB">
<feFlood flood-opacity="0" result="BackgroundImageFix"/>
<feBlend mode="normal" in="SourceGraphic" in2="BackgroundImageFix" result="shape"/>
<feGaussianBlur stdDeviation="66" result="effect1_foregroundBlur"/>
</filter>
<filter id="filter1_fs4" x="-96.459" y="-85.8042" width="1600.82" height="891.445" filterUnits="userSpaceOnUse" color-interpolation-filters="sRGB">
<feFlood flood-opacity="0" result="BackgroundImageFix"/>
<feBlend mode="normal" in="SourceGraphic" in2="BackgroundImageFix" result="shape"/>
<feGaussianBlur stdDeviation="66" result="effect1_foregroundBlur"/>
</filter>
<filter id="filter2_fs4" x="-107" y="-93" width="1621" height="960" filterUnits="userSpaceOnUse" color-interpolation-filters="sRGB">
<feFlood flood-opacity="0" result="BackgroundImageFix"/>
<feBlend mode="normal" in="SourceGraphic" in2="BackgroundImageFix" result="shape"/>
<feGaussianBlur stdDeviation="15" result="effect1_foregroundBlur"/>
</filter>
<radialGradient id="paint0_radials4" cx="0" cy="0" r="1" gradientUnits="userSpaceOnUse" gradientTransform="translate(615.12 332.64) rotate(90) scale(484 653.84)">
<stop stop-color="#4905DA"/>
<stop offset="1" stop-color="#080510" stop-opacity="0"/>
</radialGradient>
<radialGradient id="paint1_radials4" cx="0" cy="0" r="1" gradientUnits="userSpaceOnUse" gradientTransform="translate(704 359.92) rotate(90) scale(313.28 667.92)">
<stop stop-color="#BB702C"/>
<stop offset="1" stop-color="#DAB885" stop-opacity="0"/>
</radialGradient>
<radialGradient id="paint2_radials4" cx="0" cy="0" r="1" gradientUnits="userSpaceOnUse" gradientTransform="translate(652.501 958.952) rotate(-90.6451) scale(984.656 1707.89)">
<stop offset="0.448167" stop-color="#17161B" stop-opacity="0"/>
<stop offset="0.602356" stop-opacity="0"/>
<stop offset="0.799333" stop-color="#111013" stop-opacity="0.408818"/>
<stop offset="0.881812" stop-color="#17161B" stop-opacity="0.58"/>
<stop offset="1"/>
</radialGradient>
<radialGradient id="paint3_radials4" cx="0" cy="0" r="1" gradientUnits="userSpaceOnUse" gradientTransform="translate(678.004 -700.5) rotate(90.1939) scale(1537.51 2666.73)">
<stop stop-opacity="0"/>
<stop offset="0.756745" stop-opacity="0"/>
<stop offset="0.847244" stop-opacity="0.54"/>
<stop offset="0.894472" stop-opacity="0.99"/>
<stop offset="0.917599"/>
</radialGradient>
<radialGradient id="paint4_radials4" cx="0" cy="0" r="1" gradientUnits="userSpaceOnUse" gradientTransform="translate(681.126 368) rotate(0.928945) scale(1171.94 2584.99)">
<stop offset="0.409035" stop-opacity="0"/>
<stop offset="0.50622" stop-opacity="0.5"/>
<stop offset="0.575524"/>
</radialGradient>
<linearGradient id="paint5_linears4" x1="703.5" y1="-63" x2="703.5" y2="837" gradientUnits="userSpaceOnUse">
<stop/>
<stop offset="0.0875996"/>
<stop offset="0.17093" stop-opacity="0"/>
</linearGradient>
<linearGradient id="paint6_linear" x1="-139.96" y1="331.5" x2="186.284" y2="335.832" gradientUnits="userSpaceOnUse">
<stop offset="0.353217"/>
<stop offset="0.54245" stop-opacity="0"/>
</linearGradient>
<clipPath id="clip0s4">
<rect width="1408" height="719.84" fill="white"/>
</clipPath>
</defs>
</svg>
