<svg width="1600" height="818" viewBox="0 0 1600 818" fill="none" xmlns="http://www.w3.org/2000/svg">
<g clip-path="url(#clip0__bg2)">
<rect y="-1" width="1600" height="818" fill="#17161B"/>
<g filter="url(#filter0_f__bg2)">
<path d="M272.43 1055.22L990.408 1578L1786.75 1414.9L1899 119.539L1729.57 -817H732.021L-242.226 -412.683L-310 346.163L272.43 1055.22Z" fill="url(#paint0_radial__bg2)"/>
<path d="M272.43 1055.22L990.408 1578L1786.75 1414.9L1899 119.539L1729.57 -817H732.021L-242.226 -412.683L-310 346.163L272.43 1055.22Z" stroke="black"/>
</g>
<g filter="url(#filter1_f__bg2)">
<path d="M-104.528 -49.6203L-509 262.728L-382.81 609.167L619.404 658L1344 584.29V150.319L1031.18 -273.516L444.066 -303L-104.528 -49.6203Z" fill="url(#paint1_radial__bg2)"/>
<path d="M-104.528 -49.6203L-509 262.728L-382.81 609.167L619.404 658L1344 584.29V150.319L1031.18 -273.516L444.066 -303L-104.528 -49.6203Z" stroke="black"/>
</g>
<g filter="url(#filter2_f__bg2)">
<path d="M1697.65 831.272L2029 599.855L1925.62 343.18L1104.6 307L511 361.612V683.138L767.265 997.155L1248.24 1019L1697.65 831.272Z" fill="url(#paint2_radial__bg2)"/>
<path d="M1697.65 831.272L2029 599.855L1925.62 343.18L1104.6 307L511 361.612V683.138L767.265 997.155L1248.24 1019L1697.65 831.272Z" stroke="black"/>
</g>
<rect opacity="0.7" y="-1" width="1600" height="818" fill="#17161B"/>
</g>
<defs>
<filter id="filter0_f__bg2" x="-410.516" y="-917.5" width="2410.02" height="2596.03" filterUnits="userSpaceOnUse" color-interpolation-filters="sRGB">
<feFlood flood-opacity="0" result="BackgroundImageFix"/>
<feBlend mode="normal" in="SourceGraphic" in2="BackgroundImageFix" result="shape"/>
<feGaussianBlur stdDeviation="50" result="effect1_foregroundBlur"/>
</filter>
<filter id="filter1_f__bg2" x="-609.595" y="-403.506" width="2054.09" height="1162.01" filterUnits="userSpaceOnUse" color-interpolation-filters="sRGB">
<feFlood flood-opacity="0" result="BackgroundImageFix"/>
<feBlend mode="normal" in="SourceGraphic" in2="BackgroundImageFix" result="shape"/>
<feGaussianBlur stdDeviation="50" result="effect1_foregroundBlur"/>
</filter>
<filter id="filter2_f__bg2" x="410.5" y="206.499" width="1719.11" height="913.006" filterUnits="userSpaceOnUse" color-interpolation-filters="sRGB">
<feFlood flood-opacity="0" result="BackgroundImageFix"/>
<feBlend mode="normal" in="SourceGraphic" in2="BackgroundImageFix" result="shape"/>
<feGaussianBlur stdDeviation="50" result="effect1_foregroundBlur"/>
</filter>
<radialGradient id="paint0_radial__bg2" cx="0" cy="0" r="1" gradientUnits="userSpaceOnUse" gradientTransform="translate(794.5 380.5) scale(1104.5 1197.5)">
<stop stop-color="#FF0101" stop-opacity="0.49"/>
<stop offset="0.950052" stop-opacity="0"/>
</radialGradient>
<radialGradient id="paint1_radial__bg2" cx="0" cy="0" r="1" gradientUnits="userSpaceOnUse" gradientTransform="translate(417.5 177.5) rotate(90) scale(480.5 926.5)">
<stop stop-color="#911994"/>
<stop offset="1" stop-color="#594C59" stop-opacity="0"/>
</radialGradient>
<radialGradient id="paint2_radial__bg2" cx="0" cy="0" r="1" gradientUnits="userSpaceOnUse" gradientTransform="translate(1270 663) rotate(-90) scale(356 759)">
<stop stop-color="#009EA8" stop-opacity="0.47"/>
<stop offset="1" stop-color="#04434B" stop-opacity="0"/>
</radialGradient>
<clipPath id="clip0__bg2">
<rect width="1600" height="818" fill="white"/>
</clipPath>
</defs>
</svg>
