<svg width="26" height="22" viewBox="0 0 26 22" fill="none" xmlns="http://www.w3.org/2000/svg">
<path d="M1 13.1077C2.33739 10.8544 3.0498 8.3165 4.11111 5.94984C4.80365 4.40551 4.01644 7.95111 3.97942 8.47853C3.92349 9.27546 4.33524 10.3831 4.68724 11.0684C5.34784 12.3544 7.72234 6.43997 7.81481 4.9506C7.85162 4.35777 7.98209 3.00585 8.17695 2.46269C8.66315 1.10747 8.0893 3.54836 8.04527 4.17568C7.67177 9.4968 6.84138 15.8102 8.53909 20.918C8.79495 21.6878 8.87356 16.8031 9.04903 15.9578C9.56827 13.4562 9.90663 10.4319 10.0552 7.85586C10.1545 6.13264 10.4902 3.63777 10.5582 1.95264C10.6458 -0.216566 11.569 2.23492 11.3704 3.49289C11.0129 5.75619 11.2553 7.31469 11.0613 9.45737C11.0613 10.8499 11.3044 15.8138 11.3704 17.2038C11.4016 17.8616 12.0674 11.0684 12.786 11.5986C13.0735 7.85586 12.0674 11.5986 13.5766 5.36256C14.037 7.23223 13.412 6.33495 14.037 7.23223C13.7916 9.27358 14.037 11.3758 14.037 13.4339C14.037 15.0926 14.3566 13.6882 14.6461 12.9037C15.1866 11.439 15.1968 10.0241 15.5889 8.47853C16.1338 6.33068 16.4074 4.17568 17.5926 1.95288C18.1877 -1.18061 17.4306 4.36801 17.3226 4.95043C16.3897 9.98167 16.4074 14.9424 16.4074 20.0004C16.4074 20.7424 16.8654 18.8972 16.9342 18.6952C17.5244 16.9621 18.2286 15.265 18.7778 13.5155C19.5596 11.0249 19.8498 8.23918 20.4897 5.68473C20.9622 3.79882 20.6152 4.94804 20.3909 6.3373C20.0965 8.16123 19.963 9.87501 19.963 11.7414C19.963 12.4684 19.843 14.3335 20.5556 12.8833C21.0714 11.8335 21.2833 10.6551 21.4444 9.45737C21.517 8.91811 21.7955 7.5307 21.5926 8.98834C21.5072 9.60176 21.2623 14.6404 21.6091 13.5971C22.1344 12.0165 22.3093 10.2381 22.8601 8.70285C22.9767 8.37778 22.6679 11.8405 22.9918 12.292C23.2793 12.6927 24.0894 9.84116 24.1111 10.7013C24.1541 12.4069 23.8275 12.3735 25 12.3735" stroke="white" stroke-linecap="round" stroke-linejoin="round"/>
</svg>
