<svg width="26" height="20" viewBox="0 0 26 20" fill="none" xmlns="http://www.w3.org/2000/svg">
<path d="M1 11.8969C2.33739 9.86893 3.0498 7.58485 4.11111 5.45485C4.80365 4.06496 4.01644 7.256 3.97942 7.73067C3.92349 8.44792 4.33524 9.44481 4.68724 10.0616C5.34784 11.219 7.72234 5.89597 7.81481 4.55554C7.85162 4.02199 7.98209 2.80527 8.17695 2.31642C8.66315 1.09672 8.0893 3.29352 8.04527 3.85811C7.67177 8.64712 6.84138 14.3292 8.53909 18.9262C8.79495 19.619 8.87356 15.2228 9.04903 14.462C9.56827 12.2106 9.90663 9.48874 10.0552 7.17027C10.1545 5.61938 10.4902 3.37399 10.5582 1.85738C10.6458 -0.0949097 11.569 2.11143 11.3704 3.2436C11.0129 5.28057 11.2553 6.68322 11.0613 8.61164C11.0613 9.86495 11.3044 14.3324 11.3704 15.5834C11.4016 16.1754 12.0674 10.0616 12.786 10.5387C13.0735 7.17027 12.0674 10.5387 13.5766 4.92631C14.037 6.60901 13.412 5.80146 14.037 6.60901C13.7916 8.44622 14.037 10.3382 14.037 12.1905C14.037 13.6833 14.3566 12.4193 14.6461 11.7134C15.1866 10.3951 15.1968 9.12169 15.5889 7.73067C16.1338 5.79761 16.4074 3.85811 17.5926 1.85759C18.1877 -0.962551 17.4306 4.03121 17.3226 4.55538C16.3897 9.0835 16.4074 13.5482 16.4074 18.1003C16.4074 18.7682 16.8654 17.1075 16.9342 16.9257C17.5244 15.3659 18.2286 13.8385 18.7778 12.264C19.5596 10.0224 19.8498 7.51527 20.4897 5.21626C20.9622 3.51894 20.6152 4.55323 20.3909 5.80357C20.0965 7.44511 19.963 8.9875 19.963 10.6672C19.963 11.3216 19.843 13.0002 20.5556 11.695C21.0714 10.7502 21.2833 9.6896 21.4444 8.61164C21.517 8.1263 21.7955 6.87763 21.5926 8.18951C21.5072 8.74159 21.2623 13.2764 21.6091 12.3374C22.1344 10.9149 22.3093 9.31425 22.8601 7.93256C22.9767 7.64 22.6679 10.7565 22.9918 11.1628C23.2793 11.5234 24.0894 8.95705 24.1111 9.73119C24.1541 11.2662 23.8275 11.2362 25 11.2362" stroke="white" stroke-linecap="round" stroke-linejoin="round"/>
</svg>
