<svg width="32" height="32" viewBox="0 0 32 32" fill="none" xmlns="http://www.w3.org/2000/svg">
<g clip-path="url(#clip0)">
<path d="M0 15.4794V15.4341C0.401674 10.1838 2.27615 6.24599 5.53417 3.75659C8.74756 1.22194 12.2287 -0.000125473 16.0223 -0.000125473C19.9944 -0.0453871 23.6987 1.31246 27.0014 4.02816C30.3487 6.6986 32 10.6816 32 15.8415V16.1583C32 21.3634 30.3487 25.2559 27.0014 27.9263C23.6541 30.642 19.9498 31.9999 15.9777 31.9999H15.7992C11.9163 31.9546 8.34589 30.5968 5.04324 27.8811C1.74059 25.2106 0.0446304 21.0918 0 15.4794ZM15.0404 8.37328V1.22194H13.9693C13.7462 1.49351 13.5676 1.81034 13.3891 2.08191C13.2106 2.35348 13.0321 2.62505 12.8536 2.94188C12.675 3.21345 12.4519 3.57555 12.318 3.84712C12.1395 4.11869 12.0056 4.39026 11.8717 4.70709C11.6039 5.15971 11.3808 5.61232 11.2022 6.01968C10.9791 6.42703 10.8006 6.83439 10.6667 7.19648C10.9344 7.37753 11.2469 7.60384 11.6039 7.73962C12.0056 7.87541 12.4073 8.01119 12.8089 8.10171C13.2552 8.19224 13.6569 8.2375 14.0139 8.28276C14.4156 8.32802 14.7727 8.37328 15.0404 8.37328ZM16.9149 1.22194V8.32802C17.1381 8.32802 17.4059 8.37328 17.6736 8.32802C17.9414 8.32802 18.2538 8.28276 18.5216 8.2375C19.0126 8.14698 19.5927 8.01119 20.0391 7.87541C20.53 7.69436 20.9763 7.46805 21.2887 7.19648C20.7531 5.88389 20.1729 4.84287 19.5927 3.84712C19.0126 2.85136 18.3431 1.99139 17.629 1.2672V1.22194H16.9149ZM12.0948 1.62929V1.58403C11.7824 1.71982 11.47 1.94613 11.113 2.08191C10.8006 2.2177 10.3989 2.39874 10.0865 2.57979C9.46165 2.89662 8.83682 3.25871 8.21199 3.66607C7.6318 4.07342 7.0516 4.52604 6.56067 4.97866C6.73919 5.15971 6.96234 5.34075 7.14086 5.47654C7.31939 5.61232 7.54254 5.79337 7.76569 5.97442C7.94421 6.06494 8.16736 6.20072 8.39052 6.38177C8.61367 6.51756 8.88145 6.6986 9.14923 6.87965C9.50628 6.06494 9.86332 5.20497 10.3096 4.43552C10.7559 3.62081 11.2469 2.85136 11.7378 2.17243C11.7824 2.08191 11.8271 1.99139 11.9163 1.90086C11.9609 1.8556 12.0056 1.71982 12.0948 1.62929ZM25.7517 4.97866V4.9334C24.636 4.07342 23.6541 3.34924 22.6722 2.89662C21.6904 2.444 20.7085 1.99139 19.8159 1.62929C20.53 2.35348 21.1548 3.25871 21.5565 4.11869C22.0028 5.02392 22.4491 5.97442 22.8061 6.87965C22.9847 6.78913 23.2078 6.6986 23.4756 6.51756C23.6987 6.38177 24.0112 6.24599 24.2789 6.1102C24.5467 5.92915 24.7699 5.74811 25.0377 5.56706C25.3054 5.34075 25.5732 5.15971 25.7517 4.97866ZM24.993 15.072H30.1255C30.1255 13.3973 29.7685 11.8132 29.099 10.1838C28.4742 8.59959 27.5816 7.287 26.4658 6.15546V6.1102C26.2427 6.47229 25.9303 6.78913 25.6179 7.01543C25.2608 7.24174 24.9484 7.42279 24.5914 7.60384C24.3682 7.73962 24.145 7.92067 23.9219 8.01119C23.6987 8.14698 23.3863 8.2375 23.1632 8.37328C23.3417 8.73538 23.5202 9.14273 23.6987 9.50483C23.8326 9.91218 24.0558 10.3648 24.145 10.7722C24.4128 11.4963 24.5914 12.2658 24.7699 13.0352C24.9038 13.7142 24.993 14.4383 24.993 15.072ZM8.83682 8.37328V8.32802C8.47978 8.14698 8.0781 8.01119 7.76569 7.83014C7.45328 7.60384 7.14086 7.37753 6.87308 7.19648C6.6053 7.0607 6.33752 6.87965 6.11437 6.6986C5.89121 6.51756 5.71269 6.33651 5.53417 6.15546C4.37378 7.287 3.5258 8.55433 2.99024 10.048C2.41004 11.5416 2.00837 13.2163 1.82985 15.0267H7.31939C7.31939 13.7594 7.49791 12.5374 7.81032 11.3153C8.0781 10.048 8.47978 9.09747 8.83682 8.37328ZM15.0404 15.0267V9.82166C14.6834 9.86692 14.2371 9.86692 13.8354 9.82166C13.3891 9.7764 12.9428 9.64061 12.5411 9.50483C12.1841 9.4143 11.7378 9.32378 11.3808 9.18799C10.9791 9.09747 10.5774 8.91642 10.265 8.73538C9.99721 9.18799 9.77406 9.73113 9.59554 10.3195C9.37238 10.8627 9.23849 11.4511 9.1046 11.9942C9.01534 12.5374 8.97071 13.1258 8.92608 13.6236C8.88145 14.1215 8.83682 14.6194 8.83682 15.0267H15.0404ZM16.9149 9.91218V15.0267H23.5202C23.5202 14.7552 23.5202 14.4383 23.4756 14.0763C23.3863 13.7594 23.3417 13.3521 23.2971 12.99C23.1632 12.4468 23.0293 11.8584 22.8508 11.3153C22.6722 10.8174 22.4937 10.3195 22.2706 9.91218C22.1813 9.68587 22.0921 9.4143 22.0028 9.23326C21.8689 9.00695 21.735 8.87116 21.6457 8.73538C21.1548 9.09747 20.4854 9.32378 19.682 9.50483C18.9233 9.68587 18.0307 9.86692 17.2273 9.91218H16.9149ZM7.31939 16.5204H1.82985C1.82985 17.2898 1.96374 18.1498 2.18689 19.1908C2.41004 20.2771 2.85635 21.2729 3.34728 22.3591C3.57043 22.9023 3.83821 23.4454 4.106 23.9886C4.41841 24.4864 4.77545 25.0296 5.1325 25.5275C5.40028 25.3464 5.66806 25.2106 5.89121 25.0748C6.159 24.9391 6.47141 24.758 6.73919 24.6222C7.0516 24.4864 7.36402 24.3507 7.72106 24.1696C8.03347 24.0338 8.43515 23.8528 8.83682 23.6717C8.47978 22.5402 8.0781 21.4539 7.81032 20.2318C7.49791 19.055 7.31939 17.8782 7.31939 16.5656V16.5204ZM15.0404 21.816V16.5204H8.83682C8.83682 16.8825 8.88145 17.4256 8.97071 17.9688C9.01534 18.5119 9.14923 19.1003 9.23849 19.6887C9.41702 20.3224 9.55091 20.956 9.72943 21.4992C9.90795 22.0423 10.0865 22.4949 10.265 22.9023C11.0683 22.5854 11.8717 22.3591 12.4073 22.2234C12.9874 22.0423 13.523 21.9065 14.0586 21.8613H14.5495C14.728 21.816 14.9066 21.816 15.0404 21.816ZM16.9149 16.5204V21.7707C17.2273 21.816 17.5844 21.8613 17.9414 21.9065C18.3431 21.9518 18.834 22.0423 19.2357 22.1328L19.9052 22.2686C20.1283 22.3591 20.3961 22.4044 20.6192 22.4497C20.887 22.5402 21.1548 22.5854 21.4226 22.676C21.6457 22.7665 21.8689 22.8118 22.0474 22.9023C22.6276 21.4086 22.9847 20.1866 23.2078 19.1456C23.431 18.1498 23.5202 17.2898 23.5202 16.5656V16.5204H16.9149ZM30.1255 16.5656V16.5204H24.993V16.792C24.9484 17.6519 24.8145 18.6477 24.636 19.6887C24.4575 20.6845 24.0558 21.8613 23.5202 23.3096C24.2343 23.6717 24.9038 24.0338 25.4393 24.3959C25.9749 24.758 26.4658 25.1654 26.8229 25.5275C27.5816 24.758 28.251 23.717 28.8312 22.3591C29.4114 21.0466 29.8131 19.6887 30.0363 18.2403C30.0809 17.9688 30.0809 17.6972 30.1255 17.4256V16.5656ZM15.0404 30.3252V23.2644C13.9247 23.4454 12.9874 23.6717 12.2734 23.8528C11.5593 24.0338 11.0237 24.2149 10.6667 24.3959C10.9344 25.0748 11.2022 25.6632 11.47 26.2064C11.7378 26.7043 12.0502 27.2474 12.318 27.7C12.4073 27.8811 12.5858 28.0621 12.7197 28.2884C12.8536 28.4695 12.9428 28.6958 13.0767 28.8768C13.2106 29.1031 13.3445 29.3747 13.4784 29.6463C13.6569 29.8726 13.7908 30.1441 13.9693 30.3252H15.0404ZM16.9149 30.3252H17.9414C18.3431 30.0084 18.7448 29.5557 19.0572 29.0579C19.4142 28.56 19.8159 27.9716 20.0837 27.4737C20.3961 26.8853 20.7085 26.3422 20.9763 25.799C21.2441 25.2559 21.4672 24.758 21.6457 24.3959C21.1548 24.2149 20.4854 24.0338 19.8159 23.8528C19.1464 23.6717 18.2092 23.4907 16.9149 23.3096V30.3252ZM25.7517 26.6137V26.5685C25.6625 26.4327 25.484 26.2516 25.3501 26.1159C25.2162 25.9801 24.993 25.799 24.7699 25.6632C24.5914 25.5275 24.3682 25.3917 24.1004 25.2559C23.8326 25.1201 23.4756 24.9391 23.1632 24.758C22.9847 25.1201 22.6722 25.7538 22.2259 26.6137C21.8243 27.4737 21.1102 28.5147 20.2176 29.6463C21.3333 29.4652 22.3152 29.0579 23.2078 28.5147C24.1897 28.0168 25.0377 27.3379 25.7517 26.6137ZM9.14923 25.1654V25.1201C8.83682 25.3011 8.34589 25.5275 7.85495 25.7538C7.31939 25.9801 6.73919 26.2516 6.20363 26.6137C6.51604 26.8853 6.82845 27.1569 7.09623 27.3379C7.36402 27.5642 7.67643 27.7453 7.94421 27.9263C8.43515 28.2432 9.01534 28.56 9.59554 28.8316C10.1757 29.1031 10.8898 29.3747 11.7824 29.6463C11.47 29.2842 11.2469 28.8316 11.0237 28.4695C10.8006 28.1074 10.5328 27.7453 10.3096 27.3832C10.0865 27.0211 9.90795 26.6137 9.72943 26.2516C9.50628 25.8895 9.32775 25.5275 9.14923 25.1654Z" fill="white"/>
</g>
<defs>
<clipPath id="clip0">
<rect width="32" height="32" fill="white"/>
</clipPath>
</defs>
</svg>
