<svg width="26" height="18" viewBox="0 0 26 18" fill="none" xmlns="http://www.w3.org/2000/svg">
<path d="M24.4976 3.42C24.368 2.94541 24.1041 2.51057 23.7325 2.15941C23.3609 1.80824 22.8949 1.55318 22.3813 1.42C20.5051 1 13 1 13 1C13 1 5.49494 1 3.61867 1.46C3.10515 1.59318 2.63906 1.84824 2.26748 2.19941C1.8959 2.55057 1.632 2.98541 1.50242 3.46C1.15903 5.20556 0.991063 6.97631 1.00062 8.75C0.988383 10.537 1.15636 12.3213 1.50242 14.08C1.64527 14.5398 1.91509 14.9581 2.2858 15.2945C2.65652 15.6308 3.11559 15.8738 3.61867 16C5.49494 16.46 13 16.46 13 16.46C13 16.46 20.5051 16.46 22.3813 16C22.8949 15.8668 23.3609 15.6118 23.7325 15.2606C24.1041 14.9094 24.368 14.4746 24.4976 14C24.8383 12.2676 25.0063 10.5103 24.9994 8.75C25.0116 6.96295 24.8436 5.1787 24.4976 3.42V3.42Z" stroke="white" stroke-width="2" stroke-linecap="round" stroke-linejoin="round"/>
<path d="M10.7506 12.0205L16.5006 8.75047L10.7506 5.48047V12.0205Z" stroke="white" stroke-width="2" stroke-linecap="round" stroke-linejoin="round"/>
</svg>
