<svg width="26" height="20" viewBox="0 0 26 20" fill="none" xmlns="http://www.w3.org/2000/svg">
<path d="M24.4976 4.42C24.368 3.94541 24.1041 3.51057 23.7325 3.15941C23.3609 2.80824 22.8949 2.55318 22.3813 2.42C20.5051 2 13 2 13 2C13 2 5.49494 2 3.61867 2.46C3.10515 2.59318 2.63906 2.84824 2.26748 3.19941C1.8959 3.55057 1.632 3.98541 1.50242 4.46C1.15903 6.20556 0.991063 7.97631 1.00062 9.75C0.988383 11.537 1.15636 13.3213 1.50242 15.08C1.64527 15.5398 1.91509 15.9581 2.2858 16.2945C2.65652 16.6308 3.11559 16.8738 3.61867 17C5.49494 17.46 13 17.46 13 17.46C13 17.46 20.5051 17.46 22.3813 17C22.8949 16.8668 23.3609 16.6118 23.7325 16.2606C24.1041 15.9094 24.368 15.4746 24.4976 15C24.8383 13.2676 25.0063 11.5103 24.9994 9.75C25.0116 7.96295 24.8436 6.1787 24.4976 4.42V4.42Z" stroke="white" stroke-width="2" stroke-linecap="round" stroke-linejoin="round"/>
<path d="M10.7506 13.0205L16.5006 9.75047L10.7506 6.48047V13.0205Z" stroke="white" stroke-width="2" stroke-linecap="round" stroke-linejoin="round"/>
</svg>
